HIERARCHY
ROOT Hips
{
	OFFSET 0.000000 0.000000 0.000000
	CHANNELS 6 Xposition Yposition Zposition Zrotation Yrotation Xrotation 
	JOINT LHipJoint
	{
		OFFSET 0.000000 0.000000 0.000000
		CHANNELS 3 Zrotation Yrotation Xrotation
		JOINT LeftUpLeg
		{
			OFFSET 1.363060 -1.794630 0.839290
			CHANNELS 3 Zrotation Yrotation Xrotation
			JOINT LeftLeg
			{
				OFFSET 2.448110 -6.726130 0.000000
				CHANNELS 3 Zrotation Yrotation Xrotation
				JOINT LeftFoot
				{
					OFFSET 2.562200 -7.039590 0.000000
					CHANNELS 3 Zrotation Yrotation Xrotation
					JOINT LeftToeBase
					{
						OFFSET 0.157640 -0.433110 2.322550
						CHANNELS 3 Zrotation Yrotation Xrotation
						End Site
						{
							OFFSET 0.000000 0.000000 0.000000
						}
					}
				}
			}
		}
	}
	JOINT RHipJoint
	{
		OFFSET 0.000000 0.000000 0.000000
		CHANNELS 3 Zrotation Yrotation Xrotation
		JOINT RightUpLeg
		{
			OFFSET -1.305520 -1.794630 0.839290
			CHANNELS 3 Zrotation Yrotation Xrotation
			JOINT RightLeg
			{
				OFFSET -2.542530 -6.985550 0.000000
				CHANNELS 3 Zrotation Yrotation Xrotation
				JOINT RightFoot
				{
					OFFSET -2.568260 -7.056230 0.000000
					CHANNELS 3 Zrotation Yrotation Xrotation
					JOINT RightToeBase
					{
						OFFSET -0.164730 -0.452590 2.363150
						CHANNELS 3 Zrotation Yrotation Xrotation
						End Site
						{
							OFFSET 0.000000 0.000000 0.000000
						}
					}
				}
			}
		}
	}
	JOINT LowerBack
	{
		OFFSET 0.000000 0.000000 0.000000
		CHANNELS 3 Zrotation Yrotation Xrotation
		JOINT Spine
		{
			OFFSET 0.028270 2.035590 -0.193380
			CHANNELS 3 Zrotation Yrotation Xrotation
			JOINT Spine1
			{
				OFFSET 0.056720 2.048850 -0.042750
				CHANNELS 3 Zrotation Yrotation Xrotation
				JOINT Neck
				{
					OFFSET 0.000000 0.000000 0.000000
					CHANNELS 3 Zrotation Yrotation Xrotation
					JOINT Neck1
					{
						OFFSET -0.054170 1.746240 0.172020
						CHANNELS 3 Zrotation Yrotation Xrotation
						JOINT Head
						{
							OFFSET 0.104070 1.761360 -0.123970
							CHANNELS 3 Zrotation Yrotation Xrotation
							End Site
							{
								OFFSET 0.000000 0.000000 0.000000
							}
						}
					}
				}
				JOINT LeftShoulder
				{
					OFFSET 0.000000 0.000000 0.000000
					CHANNELS 3 Zrotation Yrotation Xrotation
					JOINT LeftArm
					{
						OFFSET 3.362410 1.200890 -0.311210
						CHANNELS 3 Zrotation Yrotation Xrotation
						JOINT LeftForeArm
						{
							OFFSET 4.983000 -0.000000 -0.000000
							CHANNELS 3 Zrotation Yrotation Xrotation
							JOINT LeftHand
							{
								OFFSET 3.483560 -0.000000 -0.000000
								CHANNELS 3 Zrotation Yrotation Xrotation
								JOINT LeftFingerBase
								{
									OFFSET 0.000000 0.000000 0.000000
									CHANNELS 3 Zrotation Yrotation Xrotation
									JOINT LeftHandIndex1
									{
										OFFSET 0.715260 -0.000000 -0.000000
										CHANNELS 3 Zrotation Yrotation Xrotation
										End Site
										{
											OFFSET 0.000000 0.000000 0.000000
										}
									}
								}
								JOINT LThumb
								{
									OFFSET 0.000000 0.000000 0.000000
									CHANNELS 3 Zrotation Yrotation Xrotation
									End Site
									{
										OFFSET 0.000000 0.000000 0.000000
									}
								}
							}
						}
					}
				}
				JOINT RightShoulder
				{
					OFFSET 0.000000 0.000000 0.000000
					CHANNELS 3 Zrotation Yrotation Xrotation
					JOINT RightArm
					{
						OFFSET -3.136600 1.374050 -0.404650
						CHANNELS 3 Zrotation Yrotation Xrotation
						JOINT RightForeArm
						{
							OFFSET -5.241900 -0.000000 -0.000000
							CHANNELS 3 Zrotation Yrotation Xrotation
							JOINT RightHand
							{
								OFFSET -3.444170 -0.000000 -0.000000
								CHANNELS 3 Zrotation Yrotation Xrotation
								JOINT RightFingerBase
								{
									OFFSET 0.000000 0.000000 0.000000
									CHANNELS 3 Zrotation Yrotation Xrotation
									JOINT RightHandIndex1
									{
										OFFSET -0.622530 -0.000000 -0.000000
										CHANNELS 3 Zrotation Yrotation Xrotation
										End Site
										{
											OFFSET 0.000000 0.000000 0.000000
										}
									}
								}
								JOINT RThumb
								{
									OFFSET 0.000000 0.000000 0.000000
									CHANNELS 3 Zrotation Yrotation Xrotation
									End Site
									{
										OFFSET 0.000000 0.000000 0.000000
									}
								}
							}
						}
					}
				}
			}
		}
	}
}
MOTION
Frames: 11
Frame Time: 0.008333
12.306675 17.611229 -40.651646 3.225837 -40.164335 -8.155412 -1.636610 2.722304 3.553784 -23.917831 -3.907145 -9.640219 2.423849 11.083950 35.887868 -0.021266 5.489818 -17.328560 0.653600 5.171300 14.397900 -1.597196 -2.563355 2.034534 11.387572 21.417685 -17.118349 -5.154735 -13.314137 42.853984 -1.055389 2.539451 -10.538456 -0.161800 -2.591900 7.144700 -7.947294 0.784121 8.362804 0.322379 0.138867 2.364520 3.165248 -0.115087 -2.867362 -14.404728 -9.767842 -6.301642 15.241552 -13.581265 15.824340 8.340200 -6.511300 13.240800 -9.124355 -0.174270 -0.854443 -79.580140 1.293420 16.828042 7.543745 -10.959033 -0.856988 -0.954319 -3.184105 11.419345 6.903788 29.093372 3.885600 -7.125000 0.000000 0.000000 -28.751100 60.226800 -11.225500 7.268774 1.945576 -0.566142 82.326737 2.918539 4.904386 -7.309600 13.298124 -1.383027 0.227200 -1.533727 29.180818 -18.210924 18.226920 -6.586700 7.125000 0.000000 0.000000 5.899100 -9.609700 4.858100 
12.286710 17.668907 -40.614639 3.368056 -40.477147 -8.080315 -1.692622 2.745879 3.599030 -24.111599 -4.220645 -9.023160 2.162005 10.783003 34.890778 -0.260520 6.302657 -17.508888 0.655000 5.176800 14.413500 -1.629167 -2.557846 2.027597 11.515297 21.404258 -17.852515 -5.273643 -13.480326 43.391582 -0.906893 1.556975 -10.947529 -0.010400 0.659500 -1.812200 -7.989861 0.802941 8.065468 0.328689 0.179757 2.309699 3.162071 -0.095232 -2.814998 -14.062296 -9.289215 -6.296178 14.704820 -12.818833 15.902802 8.086500 -6.174300 12.979200 -9.081475 -0.181804 -0.879349 -79.564748 1.420522 16.586895 7.727243 -11.267282 -0.896352 -1.252748 -2.887933 10.522155 11.247781 26.601890 5.986100 -7.125000 0.000000 0.000000 -21.592500 58.850700 -7.531400 7.285068 1.886919 -0.608010 82.240573 2.644524 5.138601 -7.325422 13.360925 -1.393718 0.204967 -1.537731 28.505292 -17.767535 18.719479 -6.575600 7.125000 0.000000 0.000000 6.237700 -9.135300 5.200000 
12.267047 17.683024 -40.620588 3.306520 -40.339640 -8.011120 -1.686305 2.743191 3.601852 -23.957229 -4.170340 -9.081873 2.177087 10.796743 34.937189 -0.241754 6.205972 -17.405991 0.656100 5.181000 14.425600 -1.639075 -2.558720 2.035952 12.022575 21.149002 -18.109438 -5.298084 -13.526829 43.551734 -0.774823 0.714644 -11.268529 -0.161300 2.587200 -7.131600 -8.101189 0.768127 8.417134 0.347155 0.076379 2.232793 3.275526 -0.134025 -3.094552 -13.880857 -9.089368 -6.444200 14.355834 -12.441491 15.861726 7.902500 -6.000000 12.859100 -9.068306 -0.199712 -0.885953 -79.361232 1.521491 17.267055 7.622929 -11.127350 -0.871844 -1.317767 -2.842240 11.032144 11.681964 26.472373 6.201200 -7.125000 0.000000 0.000000 -20.979400 58.810200 -7.284600 7.298112 1.876421 -0.631549 82.253432 2.494513 4.599376 -7.324296 13.370282 -1.402291 0.158857 -1.589920 28.621457 -17.647133 19.555331 -6.805500 7.125000 0.000000 0.000000 6.379400 -8.223200 5.436100 
12.241838 17.657210 -40.627748 3.340404 -40.218228 -8.011109 -1.680113 2.742437 3.597034 -23.887016 -4.092031 -9.120861 2.172709 10.790046 34.910976 -0.281274 6.261731 -17.214146 0.647400 5.147200 14.328800 -1.641048 -2.555267 2.039200 12.480426 20.888317 -18.078271 -5.333204 -13.547472 43.669522 -0.885694 1.281908 -11.347330 -0.064600 1.640400 -4.513000 -8.191421 0.738858 8.472861 0.319812 0.026183 2.267842 3.276887 -0.166282 -3.007511 -13.732623 -8.893366 -6.654206 14.327108 -12.027342 15.326242 7.862900 -5.779000 12.497900 -9.070210 -0.236529 -0.861295 -79.038217 1.296803 17.936671 7.533542 -11.005886 -0.855112 -1.344721 -2.816461 11.065531 11.874590 26.349887 6.286500 -7.125000 0.000000 0.000000 -20.644100 58.725100 -7.119200 7.300296 1.881402 -0.628055 82.332089 2.509931 4.481287 -7.369337 13.434375 -1.415609 0.173423 -1.610310 28.533436 -17.964880 19.740497 -6.999000 7.125000 0.000000 0.000000 6.176600 -7.975300 5.291500 
12.215721 17.616069 -40.627647 3.663635 -40.022302 -8.247227 -1.665110 2.733394 3.593433 -24.093640 -3.881617 -9.168049 2.227874 10.834506 35.087541 -0.205601 5.976575 -17.077098 0.635400 5.100000 14.194000 -1.636269 -2.559165 2.049694 12.688638 20.216287 -17.960877 -5.341127 -13.534845 43.658900 -1.021678 2.146784 -11.070852 -0.016600 0.831800 -2.286000 -8.501275 0.727102 8.520015 0.298415 -0.034803 2.259051 3.392428 -0.205530 -2.923780 -13.586554 -8.881077 -7.683606 13.886097 -11.898688 15.791317 7.633700 -5.683800 12.937400 -9.083828 -0.265795 -0.869901 -79.011553 1.204469 17.618435 7.440005 -10.846872 -0.829556 -1.389948 -2.768308 11.881259 11.943464 26.214131 6.295100 -7.125000 0.000000 0.000000 -20.443700 58.590300 -6.979600 7.302735 1.885341 -0.663514 82.285943 2.341738 4.692717 -7.439423 13.545062 -1.435167 0.191756 -1.584249 28.181940 -17.935057 19.523161 -6.909200 7.125000 0.000000 0.000000 6.182200 -8.230500 5.265100 
12.192328 17.616473 -40.611412 3.679178 -39.878217 -8.183213 -1.655976 2.728128 3.585805 -24.097162 -3.897574 -9.222689 2.286055 10.899233 35.309394 -0.113668 5.720094 -17.170195 0.628400 5.072400 14.115100 -1.630899 -2.554331 2.052885 13.018403 19.812101 -18.015364 -5.312912 -13.502431 43.546208 -1.079497 2.448234 -11.109494 -0.053700 1.495000 -4.112100 -8.406755 0.662183 8.430694 0.309577 -0.099398 2.241748 3.356899 -0.233492 -2.962030 -13.801518 -8.537899 -7.147292 13.933254 -11.314922 15.310583 7.752400 -5.466100 12.416900 -9.075209 -0.245327 -0.856601 -79.141049 1.219297 16.602883 7.421619 -10.808846 -0.820583 -1.404592 -2.796267 13.016728 11.473920 26.806955 6.151300 -7.125000 0.000000 0.000000 -21.454500 59.069500 -7.594000 7.307586 1.852813 -0.673210 82.177416 2.041892 4.827621 -7.494656 13.644757 -1.441230 0.284380 -1.513323 27.950658 -18.419853 18.338249 -6.696100 7.125000 0.000000 0.000000 5.759900 -9.493600 4.755700 
12.164598 17.631195 -40.586002 3.722938 -39.921517 -8.155626 -1.654592 2.722325 3.579933 -24.153846 -3.993514 -9.198956 2.331842 10.959530 35.520344 -0.059199 5.695083 -17.567524 0.639100 5.114600 14.235600 -1.628429 -2.552387 2.053728 13.289255 19.812030 -17.980294 -5.273164 -13.447964 43.367066 -1.151634 2.989900 -10.822959 -0.002700 0.336100 -0.923500 -8.398942 0.567117 8.214529 0.320532 -0.199696 2.246068 3.365993 -0.295397 -2.749537 -13.530673 -8.267802 -7.685715 13.449035 -10.831492 15.417966 7.497100 -5.230600 12.423400 -9.058059 -0.283201 -0.858849 -79.120919 1.057069 16.008431 7.497726 -10.934974 -0.845310 -1.356965 -2.893690 12.440025 11.023676 27.542566 6.045600 -7.125000 0.000000 0.000000 -22.591900 59.707400 -8.370200 7.322569 1.829815 -0.703201 82.082021 1.917546 5.162229 -7.529492 13.666786 -1.422081 0.487580 -1.421030 27.885852 -20.020787 16.075840 -6.460300 7.125000 0.000000 0.000000 4.472300 -11.824900 3.471800 
12.135557 17.610524 -40.590136 3.670869 -39.733854 -7.985014 -1.638476 2.708122 3.564111 -23.961765 -3.716219 -9.521564 2.389809 11.023870 35.718222 0.022519 5.367943 -17.377319 0.621200 5.043900 14.033800 -1.613102 -2.549824 2.057640 13.771098 19.411597 -17.917405 -5.210031 -13.378205 43.129135 -1.166388 3.103559 -10.750838 -0.002400 0.317900 -0.873400 -8.402213 0.530985 8.117326 0.272345 -0.234469 2.268751 3.254125 -0.319147 -2.574848 -13.020184 -8.121154 -8.084122 13.045489 -10.595319 15.298255 7.193000 -5.079900 12.318100 -9.046660 -0.352687 -0.841946 -78.778666 0.655910 15.915599 7.505878 -10.965715 -0.856136 -1.337790 -2.893519 11.835278 11.043387 27.387070 6.033300 -7.125000 0.000000 0.000000 -22.423100 59.560800 -8.224600 7.329995 1.830402 -0.710412 82.321416 2.019099 4.518340 -7.529066 13.616663 -1.406776 0.570297 -1.395622 28.302367 -20.844246 15.065656 -6.344200 7.125000 0.000000 0.000000 3.812300 -12.858800 2.874800 
12.107525 17.593482 -40.588119 3.214622 -39.669024 -7.535807 -1.636970 2.704557 3.557858 -23.467693 -3.728532 -9.752057 2.428112 11.083461 35.884680 0.011378 5.364852 -17.266956 0.548200 4.743300 13.177900 -1.610635 -2.557074 2.070864 14.607483 19.394545 -17.738228 -5.136309 -13.292154 42.863740 -1.141830 2.945660 -10.802579 -0.006400 0.514800 -1.414700 -8.212875 0.458466 8.160498 0.370297 -0.324864 2.149293 3.354337 -0.348532 -2.871699 -12.866847 -7.787121 -7.491533 12.673000 -10.121725 15.120281 7.012500 -4.910500 11.930000 -9.016486 -0.347932 -0.837744 -78.804986 0.743548 14.841144 7.365120 -10.753919 -0.815014 -1.353658 -2.803574 13.217409 10.692644 26.803239 5.717700 -7.125000 0.000000 0.000000 -22.324500 58.878700 -7.818000 7.358979 1.769159 -0.750923 82.263740 1.530321 4.424527 -7.507955 13.680251 -1.437395 0.361880 -1.539367 28.283523 -19.482844 18.110059 -7.035100 7.125000 0.000000 0.000000 4.998000 -9.604300 4.110200 
12.078383 17.591163 -40.574002 3.124951 -39.593467 -7.471909 -1.624030 2.716389 3.555665 -23.359997 -3.791766 -9.696918 2.462897 11.129786 36.039628 0.017093 5.399406 -17.406347 0.430500 4.210700 11.670200 -1.594357 -2.556444 2.064488 15.040180 19.829985 -17.304157 -5.074308 -13.209801 42.619392 -1.132197 2.900760 -10.790739 -0.000700 -0.165200 0.453800 -7.962652 0.479142 8.004258 0.299909 -0.241051 2.221151 3.039787 -0.314175 -2.647972 -12.653514 -7.727232 -7.428007 12.444481 -10.029836 14.909995 6.858800 -4.867100 11.735100 -9.026723 -0.380085 -0.798699 -78.454617 0.347404 14.505582 7.187983 -10.481814 -0.773991 -1.371650 -2.764106 14.288092 10.263562 26.748981 5.470200 -7.125000 0.000000 0.000000 -22.739700 58.708200 -7.879100 7.357708 1.757606 -0.757810 82.439433 1.417900 4.407665 -7.594846 13.769091 -1.430515 0.581100 -1.400176 27.925362 -20.915792 15.382272 -6.491900 7.125000 0.000000 0.000000 3.780900 -12.508800 2.878700 
12.046519 17.587331 -40.555146 3.321949 -39.394815 -7.699594 -1.628164 2.733911 3.572072 -23.566802 -4.153340 -9.284783 2.465797 11.124133 36.057563 0.083700 5.325962 -17.781863 0.454800 4.326300 11.996600 -1.575611 -2.574618 2.068473 15.163967 20.388947 -16.685764 -5.024981 -13.145481 42.432017 -1.096007 2.570394 -11.060250 -0.013900 -0.762300 2.094900 -8.161078 0.435283 8.159311 0.287361 -0.342234 2.183320 3.115636 -0.362832 -2.747437 -12.529830 -7.592426 -7.734041 12.108877 -9.802264 15.130434 6.696100 -4.768000 11.854300 -9.022427 -0.395089 -0.798811 -78.371136 0.278631 14.170324 7.122161 -10.385622 -0.762665 -1.344375 -2.829108 14.510221 9.583896 27.397126 5.205800 -7.125000 0.000000 0.000000 -24.046100 59.188800 -8.645400 7.361379 1.737334 -0.800266 82.425350 0.999814 4.934556 -7.671929 13.896904 -1.443440 0.653218 -1.329045 26.945319 -21.043892 14.637396 -6.219300 7.125000 0.000000 0.000000 3.634400 -13.364000 2.701500 
